<svg width="336" height="336" viewBox="0 0 336 336" fill="none" xmlns="http://www.w3.org/2000/svg">
<g clip-path="url(clip0)">
<path d="M389.342 369.601L307.022 309.541L218.402 277.201L129.782 225.961L16.8017 251.581L123.902 320.881L53.1317 369.391L16.8017 251.581L-82.7383 207.061L42.8417 160.441L-13.0183 96.181L53.1317 33.391L-28.9783 -26.459M322.982 96.181L435.542 109.579L322.982 96.181Z" stroke="white" stroke-width="0.42"/>
<path d="M155.4 380.1L123.9 320.88M-13.0195 96.1797L99.5405 109.62L163.8 160.44L253.26 207.06L129.57 225.75L42.6305 160.23L-13.0195 96.1797Z" stroke="white" stroke-width="0.42"/>
<path d="M218.401 277.201L242.761 353.641L307.021 309.541L352.801 251.581L253.261 207.061L218.401 277.201ZM218.401 277.201L123.901 320.881L129.781 225.961L163.801 160.441L226.381 112.981L322.981 96.1809L242.551 17.4309L155.401 44.1009L123.901 -15.1191L53.1315 33.3909L99.5415 109.621L42.8415 160.441L16.8015 251.581L-28.9785 309.541L53.3415 369.601" stroke="white" stroke-width="0.42"/>
<path d="M163.802 160.439H42.8418M218.402 -58.8008L242.972 17.8492L307.022 -26.4608L218.402 -58.8008ZM253.262 207.059L226.382 112.979L99.5418 109.619L155.402 44.0992L253.262 207.059ZM378.842 160.439L226.382 112.979L378.842 160.439Z" stroke="white" stroke-width="0.42"/>
<path d="M42.8409 160.44L-109.619 112.98M-93.2391 17.6401L53.1309 33.3901L155.401 44.1001L226.381 112.98L242.551 17.4301L389.341 33.6001L322.981 96.1801L378.841 160.44L253.261 207.06L307.021 309.54L-93.2391 17.6401ZM123.901 -15.1199L242.551 17.4301L123.901 -15.1199ZM242.761 353.64L123.901 320.88L242.761 353.64ZM16.8009 -84.4199L53.3409 33.6001L16.8009 -84.4199Z" stroke="white" stroke-width="0.42"/>
<path d="M322.979 98.2781C324.139 98.2781 325.079 97.3379 325.079 96.1781C325.079 95.0183 324.139 94.0781 322.979 94.0781C321.819 94.0781 320.879 95.0183 320.879 96.1781C320.879 97.3379 321.819 98.2781 322.979 98.2781Z" fill="white"/>
<path d="M226.379 115.079C227.539 115.079 228.479 114.139 228.479 112.979C228.479 111.819 227.539 110.879 226.379 110.879C225.219 110.879 224.279 111.819 224.279 112.979C224.279 114.139 225.219 115.079 226.379 115.079Z" fill="white"/>
<path d="M253.26 209.159C254.42 209.159 255.36 208.219 255.36 207.059C255.36 205.899 254.42 204.959 253.26 204.959C252.1 204.959 251.16 205.899 251.16 207.059C251.16 208.219 252.1 209.159 253.26 209.159Z" fill="white"/>
<path d="M307.02 311.639C308.18 311.639 309.12 310.699 309.12 309.539C309.12 308.38 308.18 307.439 307.02 307.439C305.86 307.439 304.92 308.38 304.92 309.539C304.92 310.699 305.86 311.639 307.02 311.639Z" fill="white"/>
<path d="M218.399 279.3C219.559 279.3 220.499 278.359 220.499 277.2C220.499 276.04 219.559 275.1 218.399 275.1C217.239 275.1 216.299 276.04 216.299 277.2C216.299 278.359 217.239 279.3 218.399 279.3Z" fill="white"/>
<path d="M129.78 228.059C130.939 228.059 131.88 227.119 131.88 225.959C131.88 224.8 130.939 223.859 129.78 223.859C128.62 223.859 127.68 224.8 127.68 225.959C127.68 227.119 128.62 228.059 129.78 228.059Z" fill="white"/>
<path d="M123.899 322.979C125.059 322.979 125.999 322.039 125.999 320.879C125.999 319.719 125.059 318.779 123.899 318.779C122.739 318.779 121.799 319.719 121.799 320.879C121.799 322.039 122.739 322.979 123.899 322.979Z" fill="white"/>
<path d="M16.7992 253.679C17.959 253.679 18.8992 252.738 18.8992 251.579C18.8992 250.419 17.959 249.479 16.7992 249.479C15.6394 249.479 14.6992 250.419 14.6992 251.579C14.6992 252.738 15.6394 253.679 16.7992 253.679Z" fill="white"/>
<path d="M42.8383 162.54C43.9981 162.54 44.9383 161.6 44.9383 160.44C44.9383 159.28 43.9981 158.34 42.8383 158.34C41.6785 158.34 40.7383 159.28 40.7383 160.44C40.7383 161.6 41.6785 162.54 42.8383 162.54Z" fill="white"/>
<path d="M53.3383 35.7C54.4981 35.7 55.4383 34.7598 55.4383 33.6C55.4383 32.4402 54.4981 31.5 53.3383 31.5C52.1785 31.5 51.2383 32.4402 51.2383 33.6C51.2383 34.7598 52.1785 35.7 53.3383 35.7Z" fill="white"/>
<path d="M155.399 46.2C156.559 46.2 157.499 45.2598 157.499 44.1C157.499 42.9402 156.559 42 155.399 42C154.239 42 153.299 42.9402 153.299 44.1C153.299 45.2598 154.239 46.2 155.399 46.2Z" fill="white"/>
<path d="M242.76 19.7391C243.92 19.7391 244.86 18.7989 244.86 17.6391C244.86 16.4793 243.92 15.5391 242.76 15.5391C241.6 15.5391 240.66 16.4793 240.66 17.6391C240.66 18.7989 241.6 19.7391 242.76 19.7391Z" fill="white"/>
<path d="M99.5395 111.72C100.699 111.72 101.639 110.779 101.639 109.62C101.639 108.46 100.699 107.52 99.5395 107.52C98.3797 107.52 97.4395 108.46 97.4395 109.62C97.4395 110.779 98.3797 111.72 99.5395 111.72Z" fill="white"/>
<path d="M163.799 162.54C164.959 162.54 165.899 161.6 165.899 160.44C165.899 159.28 164.959 158.34 163.799 158.34C162.639 158.34 161.699 159.28 161.699 160.44C161.699 161.6 162.639 162.54 163.799 162.54Z" fill="white"/>
</g>
<defs>
<clipPath id="clip0">
<rect width="336" height="336" fill="2E3538"/>
</clipPath>
</defs>
</svg>