<svg width="336" height="336" viewBox="0 0 336 336" fill="none" xmlns="http://www.w3.org/2000/svg">
    <g clip-path="url(#clip0)">
        <path d="M389.34 369.601L307.02 309.541L218.4 277.201L129.78 225.961L16.7998 251.581L123.9 320.881L53.1298 369.391L16.7998 251.581L-82.7402 207.061L42.8398 160.441L-13.0202 96.181L53.1298 33.391L-28.9802 -26.459M322.98 96.181L435.54 109.579L322.98 96.181Z" stroke="rgba(255, 255, 255, 0.445)" stroke-width="0.42"/>
        <path d="M155.399 380.1L123.899 320.88M-13.0205 96.1797L99.5395 109.62L163.799 160.44L253.259 207.06L129.569 225.75L42.6295 160.23L-13.0205 96.1797Z" stroke="rgba(255, 255, 255, 0.445)" stroke-width="0.42"/>
        <path d="M218.4 277.201L242.76 353.641L307.02 309.541L352.8 251.581L253.26 207.061L218.4 277.201ZM218.4 277.201L123.9 320.881L129.78 225.961L163.8 160.441L226.38 112.981L322.98 96.1809L242.55 17.4309L155.4 44.1009L123.9 -15.1191L53.1295 33.3909L99.5395 109.621L42.8395 160.441L16.7995 251.581L-28.9805 309.541L53.3395 369.601" stroke="rgba(255, 255, 255, 0.445)" stroke-width="0.42"/>
        <path d="M163.8 160.439H42.8398M218.4 -58.8008L242.97 17.8492L307.02 -26.4608L218.4 -58.8008ZM253.26 207.059L226.38 112.979L99.5398 109.619L155.4 44.0992L253.26 207.059ZM378.84 160.439L226.38 112.979L378.84 160.439Z" stroke="rgba(255, 255, 255, 0.445)" stroke-width="0.42"/>
        <path d="M42.8399 160.44L-109.62 112.98M-93.2401 17.6401L53.1299 33.3901L155.4 44.1001L226.38 112.98L242.55 17.4301L389.34 33.6001L322.98 96.1801L378.84 160.44L253.26 207.06L307.02 309.54L-93.2401 17.6401ZM123.9 -15.1199L242.55 17.4301L123.9 -15.1199ZM242.76 353.64L123.9 320.88L242.76 353.64ZM16.7999 -84.4199L53.3399 33.6001L16.7999 -84.4199Z" stroke="rgba(255, 255, 255, 0.445)" stroke-width="0.42"/>
        <path d="M322.98 98.2781C324.14 98.2781 325.08 97.3379 325.08 96.1781C325.08 95.0183 324.14 94.0781 322.98 94.0781C321.82 94.0781 320.88 95.0183 320.88 96.1781C320.88 97.3379 321.82 98.2781 322.98 98.2781Z" fill="rgba(255, 255, 255, 0.445)"/>
        <path d="M226.38 115.079C227.54 115.079 228.48 114.139 228.48 112.979C228.48 111.819 227.54 110.879 226.38 110.879C225.22 110.879 224.28 111.819 224.28 112.979C224.28 114.139 225.22 115.079 226.38 115.079Z" fill="rgba(255, 255, 255, 0.445)"/>
        <path d="M253.26 209.159C254.42 209.159 255.36 208.219 255.36 207.059C255.36 205.899 254.42 204.959 253.26 204.959C252.1 204.959 251.16 205.899 251.16 207.059C251.16 208.219 252.1 209.159 253.26 209.159Z" fill="rgba(255, 255, 255, 0.445)"/>
        <path d="M307.02 311.639C308.18 311.639 309.12 310.699 309.12 309.539C309.12 308.38 308.18 307.439 307.02 307.439C305.86 307.439 304.92 308.38 304.92 309.539C304.92 310.699 305.86 311.639 307.02 311.639Z" fill="rgba(255, 255, 255, 0.445)"/>
        <path d="M218.4 279.3C219.56 279.3 220.5 278.359 220.5 277.2C220.5 276.04 219.56 275.1 218.4 275.1C217.24 275.1 216.3 276.04 216.3 277.2C216.3 278.359 217.24 279.3 218.4 279.3Z" fill="rgba(255, 255, 255, 0.445)"/>
        <path d="M129.781 228.059C130.94 228.059 131.881 227.119 131.881 225.959C131.881 224.8 130.94 223.859 129.781 223.859C128.621 223.859 127.681 224.8 127.681 225.959C127.681 227.119 128.621 228.059 129.781 228.059Z" fill="rgba(255, 255, 255, 0.445)"/>
        <path d="M123.9 322.979C125.06 322.979 126 322.039 126 320.879C126 319.719 125.06 318.779 123.9 318.779C122.74 318.779 121.8 319.719 121.8 320.879C121.8 322.039 122.74 322.979 123.9 322.979Z" fill="rgba(255, 255, 255, 0.445)"/>
        <path d="M16.8002 253.679C17.96 253.679 18.9002 252.738 18.9002 251.579C18.9002 250.419 17.96 249.479 16.8002 249.479C15.6404 249.479 14.7002 250.419 14.7002 251.579C14.7002 252.738 15.6404 253.679 16.8002 253.679Z" fill="rgba(255, 255, 255, 0.445)"/>
        <path d="M42.8402 162.54C44 162.54 44.9402 161.6 44.9402 160.44C44.9402 159.28 44 158.34 42.8402 158.34C41.6804 158.34 40.7402 159.28 40.7402 160.44C40.7402 161.6 41.6804 162.54 42.8402 162.54Z" fill="rgba(255, 255, 255, 0.445)"/>
        <path d="M53.3402 35.7C54.5 35.7 55.4402 34.7598 55.4402 33.6C55.4402 32.4402 54.5 31.5 53.3402 31.5C52.1804 31.5 51.2402 32.4402 51.2402 33.6C51.2402 34.7598 52.1804 35.7 53.3402 35.7Z" fill="rgba(255, 255, 255, 0.445)"/>
        <path d="M155.4 46.2C156.56 46.2 157.5 45.2598 157.5 44.1C157.5 42.9402 156.56 42 155.4 42C154.24 42 153.3 42.9402 153.3 44.1C153.3 45.2598 154.24 46.2 155.4 46.2Z" fill="rgba(255, 255, 255, 0.445)"/>
        <path d="M242.76 19.7391C243.92 19.7391 244.86 18.7989 244.86 17.6391C244.86 16.4793 243.92 15.5391 242.76 15.5391C241.6 15.5391 240.66 16.4793 240.66 17.6391C240.66 18.7989 241.6 19.7391 242.76 19.7391Z" fill="rgba(255, 255, 255, 0.445)"/>
        <path d="M99.5404 111.72C100.7 111.72 101.64 110.779 101.64 109.62C101.64 108.46 100.7 107.52 99.5404 107.52C98.3806 107.52 97.4404 108.46 97.4404 109.62C97.4404 110.779 98.3806 111.72 99.5404 111.72Z" fill="rgba(255, 255, 255, 0.445)"/>
        <path d="M163.8 162.54C164.96 162.54 165.9 161.6 165.9 160.44C165.9 159.28 164.96 158.34 163.8 158.34C162.64 158.34 161.7 159.28 161.7 160.44C161.7 161.6 162.64 162.54 163.8 162.54Z" fill="rgba(255, 255, 255, 0.445)"/>
    </g>
    <defs>
        <clipPath id="clip0">
            <rect width="336" height="336" fill="rgba(255, 255, 255, 0.445)"/>
        </clipPath>
    </defs>
</svg>