<svg width="1000" height="1000" viewBox="0 0 1000 1000" fill="none" xmlns="http://www.w3.org/2000/svg">
<g clip-path="url(#clip0)">
<path opacity="0.15" d="M-960.473 853.005L-299.265 -292.207L361.892 853.005H-960.473Z" fill="#818285"/>
<path opacity="0.15" d="M85.3711 264.029L746.578 -881.184L1407.73 264.029H85.3711Z" fill="#818285"/>
<path opacity="0.15" d="M-299.289 561.812L361.919 -583.398L1023.08 561.812H-299.289Z" fill="#231F20"/>
<path opacity="0.15" d="M632.508 978.829L1293.71 -166.383L1954.87 978.829H632.508Z" fill="#595A5C"/>
<path opacity="0.15" d="M-161.082 1584.53L500.125 439.316L1161.28 1584.53H-161.082Z" fill="#595A5C"/>
<path opacity="0.15" d="M-328.301 295.048L-77.2058 -139.85L173.873 295.048H-328.301Z" fill="#A8AAAD"/>
<path opacity="0.15" d="M-118.129 1266.97L132.959 832.064L384.037 1266.97H-118.129Z" fill="#A8AAAD"/>
<path opacity="0.15" d="M406.133 506.237L657.224 71.3359L908.3 506.237H406.133Z" fill="#595A5C"/>
<path opacity="0.15" d="M867.961 1168.56L1119.06 733.654L1370.14 1168.56H867.961Z" fill="#A8AAAD"/>
<path opacity="0.15" d="M-255.469 1139.49L-4.37675 704.584L246.707 1139.49H-255.469Z" fill="#818285"/>
<path opacity="0.15" d="M816.34 704.582L941.885 487.145L1067.42 704.582H816.34Z" fill="#231F20"/>
<path opacity="0.15" d="M216.43 947.403L467.525 512.504L718.606 947.403H216.43Z" fill="#231F20"/>
<path opacity="0.15" d="M377.978 -308.578L191.406 14.5719H693.567L507.015 -308.578H377.978Z" fill="#818285"/>
<path opacity="0.15" d="M222.457 760.283L473.548 325.383L724.62 760.283H222.457Z" fill="#595A5C"/>
<path opacity="0.15" d="M706.383 868L957.477 433.104L1208.56 868H706.383Z" fill="#818285"/>
<path opacity="0.15" d="M-36.8008 1021.67L87.3222 806.676L211.445 1021.67H-36.8008Z" fill="#595A5C"/>
<path opacity="0.15" d="M423.734 177.446L547.86 -37.5488L671.98 177.446H423.734Z" fill="#A8AAAD"/>
<path opacity="0.15" d="M827.539 147.807L951.666 -67.1875L1075.78 147.807H827.539Z" fill="#231F20"/>
<path opacity="0.15" d="M-62.4922 770.746L-0.429188 663.25L61.6298 770.746H-62.4922Z" fill="#818285"/>
<path opacity="0.15" d="M657.02 640.104L781.147 425.111L905.267 640.104H657.02Z" fill="#231F20"/>
<path opacity="0.15" d="M827.539 532.612L951.668 317.621L1075.79 532.612H827.539Z" fill="#595A5C"/>
<path opacity="0.15" d="M-30.6523 118.336L93.4767 -96.6562L217.593 118.336H-30.6523Z" fill="#A8AAAD"/>
<path opacity="0.15" d="M-155.59 496.643L-31.4618 281.648L92.6622 496.643H-155.59Z" fill="#A8AAAD"/>
<path opacity="0.15" d="M258.141 539.996L320.208 432.508L382.267 539.996H258.141Z" fill="#818285"/>
<path opacity="0.15" d="M196.34 217.769L320.468 2.77539L444.585 217.769H196.34Z" fill="#818285"/>
<path opacity="0.15" d="M347.371 775.516L471.497 560.521L595.616 775.516H347.371Z" fill="#D2D3D4"/>
<path opacity="0.15" d="M681.492 668.014L743.555 560.521L805.613 668.014H681.492Z" fill="#A8AAAD"/>
<path opacity="0.15" d="M681.492 296.828L743.555 189.336L805.613 296.828H681.492Z" fill="#A8AAAD"/>
<path opacity="0.15" d="M870.059 929.166L994.188 714.172L1118.3 929.166H870.059Z" fill="#A8AAAD"/>
<path opacity="0.15" d="M148.824 389.147L272.952 174.15L397.068 389.147H148.824Z" fill="#A8AAAD"/>
<path opacity="0.15" d="M-99.7656 578.267L-37.7076 470.775L24.3514 578.267H-99.7656Z" fill="#A8AAAD"/>
<path opacity="0.15" d="M-99.7656 578.267L-37.7076 470.775L24.3514 578.267H-99.7656Z" fill="#818285"/>
<path opacity="0.15" d="M133.25 617.484L180.555 535.553L227.858 617.484H133.25Z" fill="#595A5C"/>
<path opacity="0.15" d="M759.727 458.937L807.029 377.002L854.334 458.937H759.727Z" fill="#A8AAAD"/>
<path opacity="0.15" d="M568.055 183.006L615.359 101.072L662.662 183.006H568.055Z" fill="#D2D3D4"/>
<path opacity="0.15" d="M920.316 996.82L967.621 914.887L1014.92 996.82H920.316Z" fill="#D2D3D4"/>
<path opacity="0.15" d="M369.77 658.451L417.074 576.518L464.373 658.451H369.77Z" fill="#A8AAAD"/>
<path opacity="0.15" d="M46.3555 142.039L93.6625 60.1055L140.96 142.039H46.3555Z" fill="#595A5C"/>
<path opacity="0.15" d="M712.422 844.75L759.729 762.816L807.029 844.75H712.422Z" fill="#595A5C"/>
<path opacity="0.15" d="M890.691 264.943L937.998 183.008L985.301 264.943H890.691Z" fill="#818285"/>
<path opacity="0.15" d="M339.316 501.782L386.625 419.848L433.926 501.782H339.316Z" fill="#595A5C"/>
<path opacity="0.15" d="M400.836 282.56L424.488 241.592L448.139 282.56H400.836Z" fill="#595A5C"/>
<path opacity="0.15" d="M275.164 844.75L322.468 762.816L369.772 844.75H275.164Z" fill="#231F20"/>
<path opacity="0.15" d="M386.621 996.822L433.926 914.889L481.228 996.822H386.621Z" fill="#595A5C"/>
<path opacity="0.15" d="M569.551 417.971L616.856 336.037L664.158 417.971H569.551Z" fill="#D2D3D4"/>
<path opacity="0.15" d="M774.387 976.336L798.037 935.373L821.69 976.336H774.387Z" fill="#A8AAAD"/>
<path opacity="0.15" d="M-41.8945 444.109L5.41347 362.174L52.7115 444.109H-41.8945Z" fill="#595A5C"/>
<path opacity="0.15" d="M813.977 729.182L861.283 647.246L908.582 729.182H813.977Z" fill="#818285"/>
<path opacity="0.15" d="M941.309 688.211L964.961 647.248L988.611 688.211H941.309Z" fill="#A8AAAD"/>
<path opacity="0.15" d="M941.309 546.753L964.961 505.789L988.611 546.753H941.309Z" fill="#A8AAAD"/>
<path opacity="0.15" d="M837.633 608.201L861.283 567.238L884.934 608.201H837.633Z" fill="#A8AAAD"/>
<path opacity="0.15" d="M832.473 37.5932L879.779 -44.3398L927.078 37.5932H832.473Z" fill="#818285"/>
<path opacity="0.15" d="M719.18 264.943L766.486 183.008L813.789 264.943H719.18Z" fill="#818285"/>
<path opacity="0.15" d="M412.969 33.9252L460.276 -48.0078L507.575 33.9252H412.969Z" fill="#818285"/>
<path opacity="0.15" d="M913.656 147.756L960.963 65.8223L1008.26 147.756H913.656Z" fill="#A8AAAD"/>
<path opacity="0.15" d="M930.512 486.129L977.818 404.195L1025.12 486.129H930.512Z" fill="#D2D3D4"/>
</g>
<defs>
<clipPath id="clip0">
<rect width="1000" height="1000" fill="white"/>
</clipPath>
</defs>
</svg>
